<?xml version="1.0" encoding="UTF-8" standalone="no"?>
<svg
   width="512"
   height="512"
   viewBox="0 0 64 64"
   fill="none"
   version="1.1"
   id="svg11"
   sodipodi:docname="logo.svg"
   inkscape:version="1.4.4 (dcaf3e7, 2026-05-05)"
   xmlns:inkscape="http://www.inkscape.org/namespaces/inkscape"
   xmlns:sodipodi="http://sodipodi.sourceforge.net/DTD/sodipodi-0.dtd"
   xmlns="http://www.w3.org/2000/svg"
   xmlns:svg="http://www.w3.org/2000/svg">
  <defs
     id="defs11" />
  <sodipodi:namedview
     id="namedview11"
     pagecolor="#ffffff"
     bordercolor="#000000"
     borderopacity="0.25"
     inkscape:showpageshadow="2"
     inkscape:pageopacity="0.0"
     inkscape:pagecheckerboard="0"
     inkscape:deskcolor="#d1d1d1"
     inkscape:zoom="0.48061309"
     inkscape:cx="-147.72798"
     inkscape:cy="113.39683"
     inkscape:window-width="1461"
     inkscape:window-height="916"
     inkscape:window-x="51"
     inkscape:window-y="38"
     inkscape:window-maximized="1"
     inkscape:current-layer="arrowheads" />
  <title
     id="title1">semglot</title>
  <!-- palette: ink #111111 · oxblood #A00000 -->
  <g
     id="ring"
     inkscape:label="ring"
     stroke="#111111"
     fill="none">
    <circle
       cx="32"
       cy="32"
       r="26"
       stroke-width="2"
       id="circle1" />
  </g>
  <g
     id="spokes"
     inkscape:label="spokes"
     stroke="#111111"
     stroke-width="1.6"
     stroke-linecap="round">
    <path
       d="M 32,32 32.039294,6.459416"
       id="path1"
       style="stroke:#111111;stroke-opacity:1"
       sodipodi:nodetypes="cc" />
    <path
       d="M 32,32 54.001408,19.31812"
       id="path2"
       style="stroke:#111111;stroke-opacity:1"
       sodipodi:nodetypes="cc" />
    <path
       d="M 32,32 54.237173,44.81941"
       id="path3"
       style="stroke:#111111;stroke-opacity:1"
       sodipodi:nodetypes="cc" />
    <path
       d="m 32,32 0.03929,25.383408"
       id="path4"
       style="stroke:#111111;stroke-opacity:1"
       sodipodi:nodetypes="cc" />
    <path
       d="M 32,32 9.8807096,44.839057"
       id="path5"
       sodipodi:nodetypes="cc"
       style="fill:#ff0000;stroke:#111111;stroke-opacity:1" />
    <path
       d="M 32,32 10.07718,19.337767"
       id="path6"
       style="fill:#d40000;stroke:#111111;stroke-opacity:1"
       sodipodi:nodetypes="cc" />
  </g>
  <g
     id="arrowheads"
     inkscape:label="arrowheads"
     fill="#111111">
    <path
       id="arrow-bottom"
       transform="rotate(0,32,32) translate(0.07778543,0.51856955)"
       d="m 25.44089,55.627859 5.797038,1.942661 c 2.508604,-0.681001 4.990304,-1.012257 7.525811,-2.043003 -2.089753,0.32478 -5.74154,0.216387 -6.014807,-5.954991 l -1.593503,0.03274 c -0.08691,6.4027 -4.102174,6.440593 -5.714539,6.014777 z"
       sodipodi:nodetypes="ccccccc"
       style="fill:#111111;fill-opacity:1" />
    <path
       id="arrow-lowerleft"
       transform="rotate(60,32,32) translate(0.07778543,0.51856955)"
       d="m 25.44089,55.627859 5.797038,1.942661 c 2.508604,-0.681001 4.990304,-1.012257 7.525811,-2.043003 -2.089753,0.32478 -5.74154,0.216387 -6.014807,-5.954991 l -1.593503,0.03274 c -0.08691,6.4027 -4.102174,6.440593 -5.714539,6.014777 z"
       sodipodi:nodetypes="ccccccc"
       style="fill:#111111;fill-opacity:1" />
    <path
       id="arrow-upperleft"
       transform="rotate(120,32,32) translate(0.07778543,0.51856955)"
       d="m 25.44089,55.627859 5.797038,1.942661 c 2.508604,-0.681001 4.990304,-1.012257 7.525811,-2.043003 -2.089753,0.32478 -5.74154,0.216387 -6.014807,-5.954991 l -1.593503,0.03274 c -0.08691,6.4027 -4.102174,6.440593 -5.714539,6.014777 z"
       sodipodi:nodetypes="ccccccc"
       style="fill:#111111;fill-opacity:1" />
    <path
       id="arrow-top"
       transform="rotate(180,32,32) translate(0.07778543,0.51856955)"
       d="m 25.44089,55.627859 5.797038,1.942661 c 2.508604,-0.681001 4.990304,-1.012257 7.525811,-2.043003 -2.089753,0.32478 -5.74154,0.216387 -6.014807,-5.954991 l -1.593503,0.03274 c -0.08691,6.4027 -4.102174,6.440593 -5.714539,6.014777 z"
       sodipodi:nodetypes="ccccccc"
       style="fill:#111111;fill-opacity:1" />
    <path
       id="arrow-upperright"
       transform="rotate(240,32,32) translate(0.07778543,0.51856955)"
       d="m 25.44089,55.627859 5.797038,1.942661 c 2.508604,-0.681001 4.990304,-1.012257 7.525811,-2.043003 -2.089753,0.32478 -5.74154,0.216387 -6.014807,-5.954991 l -1.593503,0.03274 c -0.08691,6.4027 -4.102174,6.440593 -5.714539,6.014777 z"
       sodipodi:nodetypes="ccccccc"
       style="fill:#111111;fill-opacity:1" />
    <path
       id="arrow-lowerright"
       transform="rotate(300,32,32) translate(0.07778543,0.51856955)"
       d="m 25.44089,55.627859 5.797038,1.942661 c 2.508604,-0.681001 4.990304,-1.012257 7.525811,-2.043003 -2.089753,0.32478 -5.74154,0.216387 -6.014807,-5.954991 l -1.593503,0.03274 c -0.08691,6.4027 -4.102174,6.440593 -5.714539,6.014777 z"
       sodipodi:nodetypes="ccccccc"
       style="fill:#111111;fill-opacity:1" />
  </g>
  <g
     id="core"
     inkscape:label="core">
    <circle
       cx="32"
       cy="32"
       r="6.9"
       fill="#A00000"
       id="circle11" />
  </g>
</svg>
