<?xml version="1.0" encoding="UTF-8" standalone="no"?>
<svg
   width="524"
   height="128"
   viewBox="0 0 262 64"
   fill="none"
   version="1.1"
   id="svg12"
   sodipodi:docname="logo-lockup.svg"
   inkscape:version="1.4.4 (dcaf3e7, 2026-05-05)"
   xmlns:inkscape="http://www.inkscape.org/namespaces/inkscape"
   xmlns:sodipodi="http://sodipodi.sourceforge.net/DTD/sodipodi-0.dtd"
   xmlns="http://www.w3.org/2000/svg"
   xmlns:svg="http://www.w3.org/2000/svg">
  <defs
     id="defs12" />
  <sodipodi:namedview
     id="namedview12"
     pagecolor="#ffffff"
     bordercolor="#000000"
     borderopacity="0.25"
     inkscape:showpageshadow="2"
     inkscape:pageopacity="0.0"
     inkscape:pagecheckerboard="0"
     inkscape:deskcolor="#d1d1d1"
     inkscape:zoom="2.0404049"
     inkscape:cx="345.02955"
     inkscape:cy="59.056905"
     inkscape:window-width="1461"
     inkscape:window-height="916"
     inkscape:window-x="51"
     inkscape:window-y="38"
     inkscape:window-maximized="1"
     inkscape:current-layer="svg12" />
  <title
     id="title1">semglot lockup</title>
  <!-- palette: ink #111111 · oxblood #A00000 · type: ET Book / Palatino, letter-spaced caps -->
  <g
     id="mark"
     inkscape:label="mark">
    <g
       id="ring"
       inkscape:label="ring"
       stroke="#111111"
       fill="none">
      <circle
         cx="32"
         cy="32"
         r="26"
         stroke-width="2"
         id="circle1" />
    </g>
    <g
       id="spokes"
       inkscape:label="spokes"
       stroke="#111111"
       stroke-width="1.6"
       stroke-linecap="round">
      <path
         d="M 32,32 32.039294,6.459416"
         id="path1" />
      <path
         d="M 32,32 54.001408,19.31812"
         id="path2" />
      <path
         d="M 32,32 54.237173,44.81941"
         id="path3" />
      <path
         d="m 32,32 0.03929,25.383408"
         id="path4" />
      <path
         d="M 32,32 9.8807096,44.839057"
         id="path5" />
      <path
         d="M 32,32 10.07718,19.337767"
         id="path6" />
    </g>
    <g
       id="arrowheads"
       inkscape:label="arrowheads"
       fill="#111111">
      <path
         transform="rotate(0,32,32) translate(0.07778543,0.51856955)"
         d="m 25.44089,55.627859 5.797038,1.942661 c 2.508604,-0.681001 4.990304,-1.012257 7.525811,-2.043003 -2.089753,0.32478 -5.74154,0.216387 -6.014807,-5.954991 l -1.593503,0.03274 c -0.08691,6.4027 -4.102174,6.440593 -5.714539,6.014777 z"
         id="path7" />
      <path
         transform="rotate(60,32,32) translate(0.07778543,0.51856955)"
         d="m 25.44089,55.627859 5.797038,1.942661 c 2.508604,-0.681001 4.990304,-1.012257 7.525811,-2.043003 -2.089753,0.32478 -5.74154,0.216387 -6.014807,-5.954991 l -1.593503,0.03274 c -0.08691,6.4027 -4.102174,6.440593 -5.714539,6.014777 z"
         id="path8" />
      <path
         transform="rotate(120,32,32) translate(0.07778543,0.51856955)"
         d="m 25.44089,55.627859 5.797038,1.942661 c 2.508604,-0.681001 4.990304,-1.012257 7.525811,-2.043003 -2.089753,0.32478 -5.74154,0.216387 -6.014807,-5.954991 l -1.593503,0.03274 c -0.08691,6.4027 -4.102174,6.440593 -5.714539,6.014777 z"
         id="path9" />
      <path
         transform="rotate(180,32,32) translate(0.07778543,0.51856955)"
         d="m 25.44089,55.627859 5.797038,1.942661 c 2.508604,-0.681001 4.990304,-1.012257 7.525811,-2.043003 -2.089753,0.32478 -5.74154,0.216387 -6.014807,-5.954991 l -1.593503,0.03274 c -0.08691,6.4027 -4.102174,6.440593 -5.714539,6.014777 z"
         id="path10" />
      <path
         transform="rotate(240,32,32) translate(0.07778543,0.51856955)"
         d="m 25.44089,55.627859 5.797038,1.942661 c 2.508604,-0.681001 4.990304,-1.012257 7.525811,-2.043003 -2.089753,0.32478 -5.74154,0.216387 -6.014807,-5.954991 l -1.593503,0.03274 c -0.08691,6.4027 -4.102174,6.440593 -5.714539,6.014777 z"
         id="path11" />
      <path
         transform="rotate(300,32,32) translate(0.07778543,0.51856955)"
         d="m 25.44089,55.627859 5.797038,1.942661 c 2.508604,-0.681001 4.990304,-1.012257 7.525811,-2.043003 -2.089753,0.32478 -5.74154,0.216387 -6.014807,-5.954991 l -1.593503,0.03274 c -0.08691,6.4027 -4.102174,6.440593 -5.714539,6.014777 z"
         id="path12" />
    </g>
    <g
       id="core"
       inkscape:label="core">
      <circle
         cx="32"
         cy="32"
         r="6.9"
         fill="#A00000"
         id="circle12" />
    </g>
  </g>
  <path
     d="m 82.952148,41.282227 q 0.234375,-1.40625 0.278321,-4.555665 h 0.996093 q 0.07324,2.138672 0.234375,2.53418 0.175782,0.38086 0.820313,0.820313 0.644531,0.439453 1.728516,0.791015 1.083984,0.336914 2.094726,0.336914 1.479492,0 2.72461,-0.673828 1.245117,-0.688476 1.816406,-1.787109 0.571289,-1.113281 0.571289,-2.373047 0,-0.966797 -0.292969,-1.669922 -0.27832,-0.703125 -0.864258,-1.12793 -0.585937,-0.439453 -1.450195,-0.615234 -0.541992,-0.08789 -2.167969,-0.292969 -1.625976,-0.205078 -2.768554,-0.454101 -1.523438,-0.46875 -2.241211,-1.098633 -0.717774,-0.629883 -1.171875,-1.655274 -0.439454,-1.02539 -0.439454,-2.211914 0,-1.728515 0.893555,-3.251953 0.908203,-1.538086 2.666016,-2.387695 1.772461,-0.849609 3.83789,-0.849609 1.245118,0 2.709961,0.336914 1.479493,0.322265 2.753907,0.952148 -0.205079,0.922852 -0.292969,1.728516 -0.08789,0.791015 -0.131836,2.34375 h -0.996094 q -0.04394,-2.25586 -0.131836,-2.460938 -0.366211,-0.527344 -0.996094,-0.952148 -1.508789,-0.84961 -3.149414,-0.84961 -2.124023,0 -3.398437,1.303711 -1.259766,1.289063 -1.259766,3.354493 0,1.245117 0.454102,1.933593 0.454101,0.673828 1.625976,1.083985 0.805664,0.27832 2.636719,0.527343 1.831055,0.234375 3.295899,0.512696 1.376953,0.410156 2.036132,0.981445 0.65918,0.556641 1.083985,1.479492 0.424804,0.908203 0.424804,2.138672 0,2.915039 -2.416992,5.083008 -2.416992,2.167969 -6.254883,2.167969 -2.90039,0 -5.258789,-1.142578 z M 102.78711,42 v -0.922852 q 1.53809,-0.01465 2.02148,-0.234375 0.20508,-0.08789 0.29297,-0.27832 0.14649,-0.292969 0.20508,-1.538086 0.0879,-1.933594 0.0879,-3.339844 v -7.485351 q 0,-1.992188 -0.0439,-3.896485 -0.0439,-1.391601 -0.21973,-1.640625 -0.16113,-0.263671 -0.54199,-0.380859 -0.36621,-0.131836 -2.10938,-0.161133 v -0.9375 l 4.17481,0.08789 4.42383,-0.07324 q 3.17871,-0.04395 4.61425,-0.04395 1.4502,0 2.73926,0.161133 -0.23437,0.834961 -0.32226,1.450196 -0.0293,0.131835 -0.26368,3.046875 h -0.92285 q 0.0147,-1.494141 -0.19043,-2.72461 -0.80566,-0.336914 -1.77246,-0.454101 -1.64062,-0.205079 -3.28125,-0.205079 -0.35156,0 -1.56738,0.05859 -1.21582,0.05859 -1.74317,0.102539 -0.0586,1.625977 -0.0879,3.046875 l -0.0586,4.951172 q 1.71387,0.08789 3.14941,0.08789 1.74317,0 2.97364,-0.161133 0.46875,-0.05859 0.60058,-0.234375 0.13184,-0.175781 0.23438,-1.201172 l 0.0879,-1.025391 h 0.8789 v 0.278321 l -0.0732,3.046875 0.0732,3.413086 h -1.02539 l -0.0439,-0.996094 q -0.0293,-1.083984 -0.20508,-1.347656 -0.16113,-0.263672 -0.62988,-0.366211 -0.83496,-0.175781 -3.23731,-0.175781 -0.98144,0 -2.7832,0.07324 -0.0732,1.464843 -0.0732,4.350586 0,2.709961 0.0732,4.116211 2.10937,0.161132 4.73145,0.161132 1.86035,0 2.65136,-0.117187 0.79102,-0.117188 1.46485,-0.395508 0.17578,-0.454101 0.35156,-1.230469 0.32226,-1.303711 0.4248,-1.96289 h 0.9668 q -0.38086,2.958984 -0.38086,4.907226 Q 117.17188,42 115.37012,42 L 106.625,41.882812 q -0.19043,0 -3.83789,0.117188 z m 21.8418,-19.87793 v -0.9375 q 1.53808,0.05859 2.94433,0.05859 1.4209,0 2.72461,-0.05859 1.28906,2.929688 2.3584,5.141602 l 5.55176,11.425781 5.00976,-10.473633 q 2.05078,-4.277343 2.73926,-6.09375 1.55274,0.05859 2.62207,0.05859 0.98145,0 3.17871,-0.05859 v 0.9375 q -1.74316,0.0293 -2.12402,0.161133 -0.36621,0.117188 -0.5127,0.336914 -0.19043,0.292969 -0.21972,1.420899 -0.0146,0.292968 -0.0732,4.160156 v 6.782226 q 0,1.992188 0.0586,3.881836 0.0439,1.391602 0.20508,1.655274 0.17578,0.263672 0.54199,0.395508 0.38086,0.117187 2.12402,0.146484 V 42 q -2.95898,-0.131836 -4.1748,-0.131836 -0.98145,0 -4.33594,0.131836 v -0.9375 q 1.74316,-0.0293 2.12402,-0.146484 0.38086,-0.131836 0.5127,-0.351563 0.19043,-0.292969 0.21973,-1.420898 0.0146,-0.307618 0.0732,-4.160157 V 24.231445 l -5.05371,10.576172 q -1.18653,2.475586 -1.86035,3.984375 -0.4834,1.098633 -1.46485,3.486328 h -0.57129 q -0.19043,-0.55664 -0.35156,-0.893554 l -0.99609,-2.124024 -7.00196,-14.545898 v 10.268554 q 0,1.992188 0.0586,3.881836 0.0439,1.391602 0.20507,1.655274 0.17579,0.263672 0.542,0.395508 0.38086,0.117187 2.12402,0.146484 V 42 L 128.27637,41.882812 124.62891,42 v -0.9375 q 1.72851,-0.0293 2.10937,-0.146484 0.38086,-0.131836 0.52735,-0.351563 0.17578,-0.292969 0.21972,-1.420898 0.0147,-0.307618 0.0586,-4.160157 v -6.782226 q 0,-1.992188 -0.0439,-3.896485 -0.0439,-1.391601 -0.21973,-1.640625 -0.16113,-0.263671 -0.54199,-0.380859 -0.36621,-0.131836 -2.10937,-0.161133 z m 52.67675,18.735352 q -2.22656,0.805664 -3.64746,1.083984 -2.50488,0.483399 -4.74609,0.483399 -3.38379,0 -6.02051,-1.31836 -2.63672,-1.333008 -4.07226,-3.720703 -1.43555,-2.387695 -1.43555,-5.639648 0,-2.856446 1.02539,-4.848633 1.04004,-2.006836 2.57812,-3.295899 1.55274,-1.289062 3.09082,-1.904296 2.3584,-0.9375 5.83008,-0.9375 1.62598,0.01465 3.41309,0.380859 1.80176,0.351562 4.05762,0.981445 -0.21973,0.747071 -0.33692,1.464844 -0.11719,0.717773 -0.30762,2.944336 h -0.89355 l -0.0732,-1.669922 q -0.0147,-0.380859 -0.0293,-0.615234 -0.0146,-0.234375 -0.19043,-0.600586 -0.39551,-0.527344 -1.25976,-0.952149 -1.49414,-0.571289 -2.47559,-0.761718 -0.9668,-0.19043 -2.31445,-0.19043 -2.78321,0 -4.81934,1.186523 -2.03613,1.186524 -3.09082,3.398438 -1.04004,2.211914 -1.04004,4.833984 0,2.885742 1.21582,5.200196 1.23047,2.299804 3.28125,3.530273 2.06543,1.21582 4.80469,1.21582 1.28906,0 2.49023,-0.249023 1.21582,-0.249024 2.05078,-0.688477 0.13184,-0.585937 0.13184,-1.875 v -1.625976 q 0,-1.289063 -0.13184,-1.508789 -0.13183,-0.219727 -0.71777,-0.322266 -0.57129,-0.117187 -2.65137,-0.175781 v -0.893555 l 4.57032,0.102539 q 1.333,0 2.72461,-0.102539 l 0.0879,0.703125 -1.09864,0.644531 q -0.17578,1.567383 -0.17578,2.885743 0,1.318359 0.17578,2.856445 z M 185.20215,42 v -0.761719 q 0.9082,-0.424804 1.15722,-0.673828 0.14649,-0.131836 0.20508,-0.336914 0.13184,-0.410156 0.17578,-1.757812 0.0586,-2.006836 0.0586,-2.387696 v -7.880859 q 0,-1.992188 -0.0439,-3.896485 -0.0439,-1.391601 -0.21972,-1.640625 -0.16114,-0.263671 -0.542,-0.380859 -0.36621,-0.131836 -2.10937,-0.161133 v -0.9375 q 3.57422,0.117188 4.42383,0.117188 0.9375,0 4.2041,-0.117188 v 0.9375 q -1.74317,0.0293 -2.12402,0.161133 -0.36622,0.117188 -0.5127,0.336914 -0.17578,0.292969 -0.21973,1.420899 -0.0146,0.292968 -0.0586,4.160156 v 9.84375 q 0,1.538086 0.0586,2.504883 1.66993,0.102539 3.31055,0.102539 4.13086,0 5.78613,-0.527344 0.19043,-0.439453 0.33692,-1.010742 l 0.58593,-2.431641 h 0.98145 q -0.32227,2.182617 -0.62988,5.126953 -0.60059,0.117188 -0.95215,0.146485 Q 198.3125,42 196.73047,42 l -8.67188,-0.117188 q -1.40625,0 -2.85644,0.117188 z m 21.18262,-10.268555 q 0,-2.314453 0.68847,-4.277343 0.70313,-1.962891 2.31446,-3.530274 1.61132,-1.567383 3.64746,-2.358398 2.03613,-0.805664 4.6582,-0.805664 2.41699,0 4.39453,0.688476 1.97754,0.673828 3.23731,1.801758 1.27441,1.113281 2.00683,2.446289 0.55664,0.996094 0.87891,2.34375 0.33691,1.347656 0.33691,2.885742 0,4.936524 -3.32519,8.217774 -3.31055,3.28125 -8.36426,3.28125 -2.29981,0 -4.29199,-0.747071 -1.99219,-0.74707 -3.36914,-2.211914 -1.37696,-1.479492 -2.09473,-3.574218 -0.71777,-2.109375 -0.71777,-4.160157 z m 3.04687,-1.21582 q 0,1.391602 0.27832,2.827148 0.27832,1.435547 0.70313,2.475586 0.70312,1.757813 1.83105,2.958985 1.14258,1.186523 2.53418,1.757812 1.40625,0.556641 3.10547,0.556641 2.3584,0 4.10156,-1.142578 1.74317,-1.157227 2.59277,-3.237305 0.86426,-2.094727 0.86426,-4.819336 0,-2.329101 -0.61523,-4.291992 -0.38086,-1.201172 -1.01074,-2.167969 -0.62989,-0.981445 -1.50879,-1.699219 -0.86426,-0.732421 -2.25586,-1.230468 -1.3916,-0.498047 -3.00293,-0.498047 -2.3291,0 -4.08692,1.040039 -1.75781,1.040039 -2.65136,3.017578 -0.87891,1.962891 -0.87891,4.453125 z m 25.50391,-4.482422 h -0.90821 q -0.0146,-3.500976 -0.14648,-4.848633 1.59668,0.05859 5.00976,0.146485 2.76856,0.05859 3.69141,0.05859 0.99609,0 4.61426,-0.08789 2.62207,-0.05859 3.82324,-0.117188 -0.17578,1.640625 -0.23437,4.848633 h -0.9375 l -0.11719,-1.40625 q -0.11719,-1.274414 -0.16113,-1.450195 -0.044,-0.175781 -0.13184,-0.249024 -0.0732,-0.07324 -0.23438,-0.117187 -0.20507,-0.04395 -1.46484,-0.117188 -1.25976,-0.07324 -1.99219,-0.07324 h -1.78711 q -0.14648,1.40625 -0.14648,3.793945 v 8.569336 q 0,1.992188 0.0439,3.881836 0.0439,1.391602 0.20507,1.655274 0.17578,0.263672 0.542,0.395508 0.38085,0.117187 2.12402,0.146484 V 42 q -2.62207,-0.117188 -3.94043,-0.117188 -0.57129,0 -4.57031,0.117188 v -0.9375 q 1.74316,-0.0293 2.12402,-0.146484 0.38086,-0.131836 0.5127,-0.351563 0.19043,-0.292969 0.23437,-1.420898 0,-0.307618 0.0586,-4.160157 v -8.540039 q 0,-0.615234 -0.0293,-1.347656 l -0.0879,-2.475586 h -2.18262 q -1.88965,0 -3.00293,0.146485 -0.35156,0.04395 -0.4541,0.190429 -0.16113,0.249024 -0.29297,1.59668 z"
     id="wordmark"
     inkscape:label="wordmark"
     style="font-size:30px;font-family:'ET Book', Palatino, 'Palatino Linotype', Georgia, serif;letter-spacing:4;fill:#111111"
     aria-label="SEMGLOT" />
</svg>
