<?xml version="1.0" encoding="UTF-8"?>
<svg xmlns="http://www.w3.org/2000/svg" xmlns:inkscape="http://www.inkscape.org/namespaces/inkscape" width="524" height="128" viewBox="0 0 262 64" fill="none">
  <title>semglot — lockup</title>
  <!-- palette: ink #111111 · oxblood #A00000 · type: ET Book / Palatino, letter-spaced caps -->

  <g id="mark" inkscape:label="mark">
    <g id="ring" inkscape:label="ring" stroke="#111111" fill="none">
      <circle cx="32" cy="32" r="26" stroke-width="2"/>
    </g>
    <g id="spokes" inkscape:label="spokes" stroke="#111111" stroke-width="1.6" stroke-linecap="round">
      <path d="M 32,32 32.039294,6.459416"/>
      <path d="M 32,32 54.001408,19.31812"/>
      <path d="M 32,32 54.237173,44.81941"/>
      <path d="m 32,32 0.03929,25.383408"/>
      <path d="M 32,32 9.8807096,44.839057"/>
      <path d="M 32,32 10.07718,19.337767"/>
    </g>
    <g id="arrowheads" inkscape:label="arrowheads" fill="#111111">
      <path transform="rotate(0,32,32) translate(0.07778543,0.51856955)" d="m 25.44089,55.627859 5.797038,1.942661 c 2.508604,-0.681001 4.990304,-1.012257 7.525811,-2.043003 -2.089753,0.32478 -5.74154,0.216387 -6.014807,-5.954991 l -1.593503,0.03274 c -0.08691,6.4027 -4.102174,6.440593 -5.714539,6.014777 z"/>
      <path transform="rotate(60,32,32) translate(0.07778543,0.51856955)" d="m 25.44089,55.627859 5.797038,1.942661 c 2.508604,-0.681001 4.990304,-1.012257 7.525811,-2.043003 -2.089753,0.32478 -5.74154,0.216387 -6.014807,-5.954991 l -1.593503,0.03274 c -0.08691,6.4027 -4.102174,6.440593 -5.714539,6.014777 z"/>
      <path transform="rotate(120,32,32) translate(0.07778543,0.51856955)" d="m 25.44089,55.627859 5.797038,1.942661 c 2.508604,-0.681001 4.990304,-1.012257 7.525811,-2.043003 -2.089753,0.32478 -5.74154,0.216387 -6.014807,-5.954991 l -1.593503,0.03274 c -0.08691,6.4027 -4.102174,6.440593 -5.714539,6.014777 z"/>
      <path transform="rotate(180,32,32) translate(0.07778543,0.51856955)" d="m 25.44089,55.627859 5.797038,1.942661 c 2.508604,-0.681001 4.990304,-1.012257 7.525811,-2.043003 -2.089753,0.32478 -5.74154,0.216387 -6.014807,-5.954991 l -1.593503,0.03274 c -0.08691,6.4027 -4.102174,6.440593 -5.714539,6.014777 z"/>
      <path transform="rotate(240,32,32) translate(0.07778543,0.51856955)" d="m 25.44089,55.627859 5.797038,1.942661 c 2.508604,-0.681001 4.990304,-1.012257 7.525811,-2.043003 -2.089753,0.32478 -5.74154,0.216387 -6.014807,-5.954991 l -1.593503,0.03274 c -0.08691,6.4027 -4.102174,6.440593 -5.714539,6.014777 z"/>
      <path transform="rotate(300,32,32) translate(0.07778543,0.51856955)" d="m 25.44089,55.627859 5.797038,1.942661 c 2.508604,-0.681001 4.990304,-1.012257 7.525811,-2.043003 -2.089753,0.32478 -5.74154,0.216387 -6.014807,-5.954991 l -1.593503,0.03274 c -0.08691,6.4027 -4.102174,6.440593 -5.714539,6.014777 z"/>
    </g>
    <g id="core" inkscape:label="core">
      <circle cx="32" cy="32" r="6.9" fill="#A00000"/>
    </g>
  </g>

  <text id="wordmark" inkscape:label="wordmark" x="82" y="42"
        font-family="'ET Book', Palatino, 'Palatino Linotype', Georgia, serif"
        font-size="30" letter-spacing="4" fill="#111111">SEMGLOT</text>
</svg>
